<?xml version="1.0" standalone="no"?><!DOCTYPE svg PUBLIC "-//W3C//DTD SVG 1.1//EN" "http://www.w3.org/Graphics/SVG/1.1/DTD/svg11.dtd"><svg t="1710410168715" class="icon" viewBox="0 0 1024 1024" version="1.1" xmlns="http://www.w3.org/2000/svg" p-id="4240" xmlns:xlink="http://www.w3.org/1999/xlink" width="64" height="64"><path d="M604.283 884.699l54.97 117.682a511.941 511.941 0 0 1-231.462 14.59l37.82-123.825a387.86 387.86 0 0 0 138.672-8.447zM511.94 0a512.133 512.133 0 0 1 498.887 396.563l-126.321 22.27a383.956 383.956 0 1 0-541.634 437.901l-37.756 123.634A512.07 512.07 0 0 1 511.941 0z m293.215 759.85l115.059 61.048A514.63 514.63 0 0 1 776.23 950.483L721.71 833.57a387 387 0 0 0 83.447-73.72z m218.407-235.558l0.32-12.35c0 70.2-14.078 137.136-39.676 198.057l-113.715-60.41a381.78 381.78 0 0 0 23.806-102.388l129.265-22.909zM496.519 319.963v210.344h207.4v109.62H383.956V319.963H496.52z" fill="#172439" p-id="4241"></path></svg>